HIERARCHY
ROOT Hips
{
	OFFSET -14.64140 90.27770 -84.91600
	CHANNELS 6 Xposition Yposition Zposition Zrotation Xrotation Yrotation
	JOINT Spine
	{
		OFFSET 0.00000 13.20850 -1.60436
		CHANNELS 3 Zrotation Xrotation Yrotation
		JOINT Spine1
		{
			OFFSET 0.00000 8.61716 0.00000
			CHANNELS 3 Zrotation Xrotation Yrotation
			JOINT Spine2
			{
				OFFSET 0.00000 8.61717 0.00000
				CHANNELS 3 Zrotation Xrotation Yrotation
				JOINT Spine3
				{
					OFFSET 0.00000 8.61717 0.00000
					CHANNELS 3 Zrotation Xrotation Yrotation
					JOINT Neck
					{
						OFFSET 0.00000 11.07920 1.10792
						CHANNELS 3 Zrotation Xrotation Yrotation
						JOINT Neck1
						{
							OFFSET 0.00000 7.08032 0.00000
							CHANNELS 3 Zrotation Xrotation Yrotation
							JOINT Head
							{
								OFFSET 0.00000 7.08031 0.00000
								CHANNELS 3 Zrotation Xrotation Yrotation
								End site
								{
									OFFSET 0.00000 0.00000 0.00000
								}
							}
						}
					}
					JOINT RightShoulder
					{
						OFFSET -0.01000 7.91373 5.19711
						CHANNELS 3 Zrotation Xrotation Yrotation
						JOINT RightArm
						{
							OFFSET -18.41580 0.00000 0.00000
							CHANNELS 3 Zrotation Xrotation Yrotation
							JOINT RightForeArm
							{
								OFFSET -29.11090 0.00000 0.00000
								CHANNELS 3 Zrotation Xrotation Yrotation
								JOINT RightHand
								{
									OFFSET -24.65040 0.00000 0.00000
									CHANNELS 3 Zrotation Xrotation Yrotation
									JOINT RightHandThumb1
									{
										OFFSET -5.35114 -0.85590 3.97906
										CHANNELS 3 Zrotation Xrotation Yrotation
										JOINT RightHandThumb2
										{
											OFFSET -4.52789 0.00000 0.00000
											CHANNELS 3 Zrotation Xrotation Yrotation
											JOINT RightHandThumb3
											{
												OFFSET -2.46976 0.00000 0.00000
												CHANNELS 3 Zrotation Xrotation Yrotation
												End site
												{
													OFFSET 0.00000 0.00000 0.00000
												}
											}
										}
									}
									JOINT RightHandIndex1
									{
										OFFSET -14.26970 0.00000 2.88139
										CHANNELS 3 Zrotation Xrotation Yrotation
										JOINT RightHandIndex2
										{
											OFFSET -5.48836 0.00000 0.00000
											CHANNELS 3 Zrotation Xrotation Yrotation
											JOINT RightHandIndex3
											{
												OFFSET -3.01859 0.00000 0.00000
												CHANNELS 3 Zrotation Xrotation Yrotation
												End site
												{
													OFFSET 0.00000 0.00000 0.00000
												}
											}
										}
									}
									JOINT RightHandMiddle1
									{
										OFFSET -14.26970 0.00000 -0.09147
										CHANNELS 3 Zrotation Xrotation Yrotation
										JOINT RightHandMiddle2
										{
											OFFSET -6.17441 0.00000 0.00000
											CHANNELS 3 Zrotation Xrotation Yrotation
											JOINT RightHandMiddle3
											{
												OFFSET -3.56743 0.00000 0.00000
												CHANNELS 3 Zrotation Xrotation Yrotation
												End site
												{
													OFFSET 0.00000 0.00000 0.00000
												}
											}
										}
									}
									JOINT RightHandRing1
									{
										OFFSET -12.69180 0.00000 -3.06433
										CHANNELS 3 Zrotation Xrotation Yrotation
										JOINT RightHandRing2
										{
											OFFSET -5.62556 0.00000 0.00000
											CHANNELS 3 Zrotation Xrotation Yrotation
											JOINT RightHandRing3
											{
												OFFSET -3.56744 0.00000 0.00000
												CHANNELS 3 Zrotation Xrotation Yrotation
												End site
												{
													OFFSET 0.00000 0.00000 0.00000
												}
											}
										}
									}
									JOINT RightHandPinky1
									{
										OFFSET -11.11390 0.00000 -6.03719
										CHANNELS 3 Zrotation Xrotation Yrotation
										JOINT RightHandPinky2
										{
											OFFSET -4.52789 0.00000 0.00000
											CHANNELS 3 Zrotation Xrotation Yrotation
											JOINT RightHandPinky3
											{
												OFFSET -2.46976 0.00000 0.00000
												CHANNELS 3 Zrotation Xrotation Yrotation
												End site
												{
													OFFSET 0.00000 0.00000 0.00000
												}
											}
										}
									}
								}
							}
						}
					}
					JOINT LeftShoulder
					{
						OFFSET 0.01000 7.91373 5.19711
						CHANNELS 3 Zrotation Xrotation Yrotation
						JOINT LeftArm
						{
							OFFSET 18.41580 0.00000 0.00000
							CHANNELS 3 Zrotation Xrotation Yrotation
							JOINT LeftForeArm
							{
								OFFSET 29.11090 0.00000 0.00000
								CHANNELS 3 Zrotation Xrotation Yrotation
								JOINT LeftHand
								{
									OFFSET 24.65040 0.00000 0.00000
									CHANNELS 3 Zrotation Xrotation Yrotation
									JOINT LeftHandThumb1
									{
										OFFSET 5.35114 -0.85590 3.97906
										CHANNELS 3 Zrotation Xrotation Yrotation
										JOINT LeftHandThumb2
										{
											OFFSET 4.52789 0.00000 0.00000
											CHANNELS 3 Zrotation Xrotation Yrotation
											JOINT LeftHandThumb3
											{
												OFFSET 2.46977 0.00000 0.00000
												CHANNELS 3 Zrotation Xrotation Yrotation
												End site
												{
													OFFSET 0.00000 0.00000 0.00000
												}
											}
										}
									}
									JOINT LeftHandIndex1
									{
										OFFSET 14.26970 0.00000 2.88139
										CHANNELS 3 Zrotation Xrotation Yrotation
										JOINT LeftHandIndex2
										{
											OFFSET 5.48836 0.00000 0.00000
											CHANNELS 3 Zrotation Xrotation Yrotation
											JOINT LeftHandIndex3
											{
												OFFSET 3.01859 0.00000 0.00000
												CHANNELS 3 Zrotation Xrotation Yrotation
												End site
												{
													OFFSET 0.00000 0.00000 0.00000
												}
											}
										}
									}
									JOINT LeftHandMiddle1
									{
										OFFSET 14.26970 0.00000 -0.09147
										CHANNELS 3 Zrotation Xrotation Yrotation
										JOINT LeftHandMiddle2
										{
											OFFSET 6.17440 0.00000 0.00000
											CHANNELS 3 Zrotation Xrotation Yrotation
											JOINT LeftHandMiddle3
											{
												OFFSET 3.56744 0.00000 0.00000
												CHANNELS 3 Zrotation Xrotation Yrotation
												End site
												{
													OFFSET 0.00000 0.00000 0.00000
												}
											}
										}
									}
									JOINT LeftHandRing1
									{
										OFFSET 12.69180 0.00000 -3.06433
										CHANNELS 3 Zrotation Xrotation Yrotation
										JOINT LeftHandRing2
										{
											OFFSET 5.62556 0.00000 0.00000
											CHANNELS 3 Zrotation Xrotation Yrotation
											JOINT LeftHandRing3
											{
												OFFSET 3.56744 0.00000 0.00000
												CHANNELS 3 Zrotation Xrotation Yrotation
												End site
												{
													OFFSET 0.00000 0.00000 0.00000
												}
											}
										}
									}
									JOINT LeftHandPinky1
									{
										OFFSET 11.11390 0.00000 -6.03719
										CHANNELS 3 Zrotation Xrotation Yrotation
										JOINT LeftHandPinky2
										{
											OFFSET 4.52789 0.00000 0.00000
											CHANNELS 3 Zrotation Xrotation Yrotation
											JOINT LeftHandPinky3
											{
												OFFSET 2.46976 0.00000 0.00000
												CHANNELS 3 Zrotation Xrotation Yrotation
												End site
												{
													OFFSET 0.00000 0.00000 0.00000
												}
											}
										}
									}
								}
							}
						}
					}
					JOINT pCube4
					{
						OFFSET 0.00000 10.91090 1.10792
						CHANNELS 3 Zrotation Xrotation Yrotation
						End site
						{
							OFFSET 0.00000 0.00000 0.00000
						}
					}
				}
			}
		}
	}
	JOINT RightUpLeg
	{
		OFFSET -9.98441 0.00000 0.00000
		CHANNELS 3 Zrotation Xrotation Yrotation
		JOINT RightLeg
		{
			OFFSET 0.00000 -42.11790 0.00000
			CHANNELS 3 Zrotation Xrotation Yrotation
			JOINT RightFoot
			{
				OFFSET 0.00000 -45.00020 -0.00001
				CHANNELS 3 Zrotation Xrotation Yrotation
				JOINT RightForeFoot
				{
					OFFSET 0.00000 -3.74820 0.00000
					CHANNELS 3 Zrotation Xrotation Yrotation
					JOINT RightToeBase
					{
						OFFSET 0.00000 0.06325 14.43120
						CHANNELS 3 Zrotation Xrotation Yrotation
						End site
						{
							OFFSET 0.00000 0.00000 0.00000
						}
					}
				}
			}
		}
	}
	JOINT LeftUpLeg
	{
		OFFSET 9.98441 0.00000 0.00000
		CHANNELS 3 Zrotation Xrotation Yrotation
		JOINT LeftLeg
		{
			OFFSET 0.00000 -42.11800 0.00000
			CHANNELS 3 Zrotation Xrotation Yrotation
			JOINT LeftFoot
			{
				OFFSET 0.00000 -45.00070 0.00000
				CHANNELS 3 Zrotation Xrotation Yrotation
				JOINT LeftForeFoot
				{
					OFFSET 0.00000 -3.74824 0.00000
					CHANNELS 3 Zrotation Xrotation Yrotation
					JOINT LeftToeBase
					{
						OFFSET 0.00000 0.06325 14.43110
						CHANNELS 3 Zrotation Xrotation Yrotation
						End site
						{
							OFFSET 0.00000 0.00000 0.00000
						}
					}
				}
			}
		}
	}
}
MOTION
Frames: 4
Frame Time: 0.050000
-0.03433270013412763 -0.021957729523014897 -0.030044386227440985 -0.036252514420308135 0.04592718773635004 0.027785979942674396 -4.871580982485592 9.290923086960909 -0.43672175984318823 -0.8638740246688306 2.9257631577352723 0.4063458811879056 -1.0376606433519566 0.4605283268713945 -0.5407497947050046 -1.1193159128127297 0.2805468771509973 -0.9347752278748258 -0.680643621480778 6.187830169358912 1.1288114180293984 -0.47065773775569747 -2.196328350526603 -2.38043262003247 -0.5554277428678002 -16.8603444487243 -0.04349237403079836 2.9068198340983082 0.17568512157818544 -7.1067733922213785 52.82116186438427 4.6983909111759425 35.68106770188745 6.729758579767059 17.53921819654728 74.31186459620838 27.707149505813437 -0.1376238961550642 -9.509627597544215 4.547248296880752 -0.10646772560957804 -1.5583548837928467 -0.01530980615443022 -0.007071948909211293 -56.20000095886497 0.00825890353277228 -0.030698129338627145 -56.21283948522699 -38.78638728742991 0.038807916992043244 0.03257889431099479 0.01748162399878091 -0.04956809961341653 -0.0480315952059203 0.04846274080931647 -0.01939891031993728 -0.003357104948533869 -36.72590330117512 0.03249928824141528 -0.038561643360932076 -0.03587251939176102 0.04490932797085016 0.02924987684578569 -0.04155420344336293 0.01969331618918955 0.016123258769075357 -19.79327456017658 0.001061985759664365 -0.028724746348599582 0.010857566283683727 -0.002506688496184197 0.014471232727313642 -0.03728621364822804 -0.004191885996292436 -0.013496797735946966 24.073006129367887 0.015385908072698719 -0.008950633732961266 28.84031281281526 -0.033868142981194345 0.02656285562533635 28.853724200791987 0.04986934440146366 0.04888748833726455 -2.1883355046740833 0.04457709286651806 7.077428103759755 -50.80566963740694 19.747852311255272 -29.17464481047845 -24.416441542111617 14.963148978133011 -82.15825737237893 -25.65727813808434 -8.03591595502383 6.337344172782157 -0.43278513829918697 0.08277301040532259 -8.116102000090695 0.0009475659076948401 -0.009026982229618372 44.53080386693521 -0.028999857883801754 0.02396841094706021 44.56538766465067 12.48900409681057 0.03789152289922369 0.020263505214998662 -0.0024294819735888153 0.005576792405246231 -0.03580190746057534 -0.01680350176336307 -0.018248280708547223 -0.023259396936540146 11.065863689350282 -0.048812794183085914 0.004213287331797529 -0.016523046367885336 0.012833960351412859 -0.015099385237732604 -0.03518043346247248 0.0408698991184246 0.02286442552427162 4.792511034547294 -0.004371919594906667 -0.002933962818452588 -0.01619146297774337 -0.028321696327666148 -0.0015869428617272298 0.004757128375211281 -0.02507050623432396 -0.007221424953841376 -5.560767285712088 0.012171861647229167 -0.015660747695423662 -6.726495804982535 -0.03402045371471694 -0.02277329521781338 -6.684652842699869 -0.02883915705612544 -0.04901418397426778 0.001755903095567298 -0.009027186746678314 0.009526254785218223 8.020653218336312 3.4745290589141273 -19.249025256207826 0.017649420069584972 10.351042031652975 0.030105387436632575 -5.663725147635082 -15.6434002644179 3.242199754032161 -0.008732490266334396 -0.022572648605674858 0.007312685127857917 0.0032269656617356134 4.683527486851355 -0.011411028068908221 12.472743234668414 -8.248597381407533 6.903907062875895 0.03208492004252468 46.344773556609 -0.014172750121888449 -4.325931986933986 -14.736058606519546 -3.7968706301497153 -0.028883915151468913 -0.01593018008856006 0.0034599522335293747 0.020106397538207216 -10.794429258732794 0.0008991427968452895 
-0.0110817559523812 -0.01026861291646885 0.047123169540682214 0.002489572872632087 -0.03599945657392512 0.02127786738108759 -4.89097578438262 9.223943049995775 -0.3918203818402779 -0.7828439349072589 2.9704030258415983 0.41779760890516465 -1.0237889142218808 0.39450149754816344 -0.6681088001525066 -1.1499770125294817 0.22828430116958154 -0.916330032561509 -0.7450424983306058 6.082919990333065 1.204687571716005 -0.45174257209639523 -2.1592805715620274 -2.145096032123709 -0.5304801729720592 -16.6616224791526 -0.04462317292013121 3.2176988231904664 0.053152887490135664 -7.081275763356967 50.593808287851374 4.194657887870166 33.14186846046524 2.021697166895183 17.111995561739654 71.2145558465395 28.67067876348039 -0.19229983809163642 -8.840060385297056 4.502831415466685 -0.15254337990374475 -1.6072107681644254 -0.004806245406227233 -0.028364731397280248 -56.26879854925364 0.009897258830426957 0.014486799793379003 -56.2418049845278 -38.736505842886274 0.019603133474370257 0.02981439163666002 0.04250752949409768 -0.0171301540258236 0.008834053157324932 -0.019346064099757317 0.04618830931124465 0.018863472269193007 -36.70044111723628 0.024226284702260417 0.024731810007192063 0.016283768168043847 -0.039438442702878496 -0.0041580531672339325 0.015558441171582754 -0.018622415104049772 -0.020457673606678273 -19.762862367006555 0.030958543468514045 -0.030141032051560986 0.016715952325406926 -0.03140227302144866 -0.006860989867636326 0.03987155451811029 -0.011611453783872511 -0.020509959562943113 24.079501673432684 0.04591573691049121 -0.014112497147865867 28.869427858788672 -0.041848083780050754 0.048451506845822646 28.887532104853378 -0.0021379136032088006 0.022522634148705267 -2.2564162852554506 0.029784409623654917 7.181830004103054 -49.217283634976525 19.77208088252466 -28.809507931675196 -19.748376697831816 13.795487127410182 -80.7949363047483 -26.48112766146133 -8.468884685817995 6.6905222436027305 -0.4651156199762116 0.0889661803033323 -8.162473975380408 -0.03096038235786935 0.03592811369887969 44.53113561238353 0.018816477244248803 0.007489255177070335 44.60557371748209 12.426176257731205 -0.006482333043265743 -0.020396782340413182 -0.007367180635402748 -0.012153475580787798 0.016033843841644028 0.041562325823037295 0.033848415154981076 -0.014319541473197792 11.101732948813693 0.04652852860089383 -0.02542318268425236 -0.02245573875894888 0.02360735558127391 -0.008582370103961474 -0.009566373295069305 -0.027170006926997118 0.03919733949089963 4.806988141823079 -0.015216124492719476 -0.04316401705084596 0.045357806322569534 -0.02283939645944474 0.00990876212868171 -0.032524291142357525 0.01874302057799107 -0.025122697244400603 -5.565633697449183 0.045701728692258116 -0.008580116069032365 -6.736222196282126 -0.0023374178148046656 0.004075907062671812 -6.72097074967824 0.016424045181885935 0.03990135496170415 0.012410477499201064 0.04064861051716868 -0.045643317268799714 8.066662102458544 3.4576140939242195 -19.187047816950074 0.047031222616792816 10.370186013046704 0.029546926106395092 -5.667645704984767 -15.615719218640846 3.193592711901944 0.03506492252643664 0.0066973560097435885 -0.040435740372394516 0.028602297871772427 4.732634671378913 0.033483626530550176 12.434702642406892 -8.235882251706114 6.875895062903039 0.04551791370901762 46.34443801811429 -0.0009303921703312909 -4.307588170415394 -14.708302830864175 -3.83677966414949 -0.03133954649584734 0.027049618657795118 0.03216809823343741 -0.03602205399065977 -10.722537616904548 -0.03094637242534362 
0.025779125720818183 0.0013865941827564615 -0.02045575539178207 0.015189802328073085 0.013129563069803769 -0.006048244052888986 -4.805704351381352 9.112755291741127 -0.4197053552149659 -0.8386255590299835 2.9272791677860166 0.4622629132930444 -0.9494622063275947 0.3876331096176703 -0.8140561423134609 -1.0954812124474773 0.14448421906559442 -0.9770198608658065 -0.7032428690059362 5.977201422216602 1.1003364617206122 -0.5134292901218255 -2.102053145249201 -2.198934132345979 -0.5655342273087711 -16.61004571937665 -0.06203556709380188 3.6421592904841487 -0.07130848938256963 -7.197437788319322 48.997466986280806 4.123746172337312 30.325494795917947 -0.9778792849052337 16.91190074162988 68.20278674769392 29.844530650140708 -0.1462573751960836 -8.648473169801273 4.553637820289279 -0.08843925719701115 -1.6052572269935912 0.018688309315938765 -0.023838970864921954 -56.235368238609944 0.013855416180322025 -0.04550957012259808 -56.274943943105356 -38.731125792229435 -0.04236048174950239 0.04583774957708706 0.01437036403561762 -0.047286112685607694 0.016815837115184123 0.029908505090026308 0.04154296023332997 0.007199917717115517 -36.689106285679834 0.03786584234686475 -0.012835083081631674 -0.03057241182437338 0.01054776135216832 0.036820065216941894 0.0017105824792912202 0.03904217244486509 -0.02373783372952728 -19.710407285546243 -0.042341307772144086 -0.002378460545322031 0.0026703952859014213 0.029231199586252716 -0.0203263144462814 0.03076020526063093 -0.004048302300168528 -0.006215574172134882 24.01508666702657 -0.036936884520539 -0.010841612312738407 28.835459081834237 0.022003664693125247 -0.005487453240464028 28.835705487299055 0.04146359566976102 0.008010636707811485 -2.327378043449687 0.07039402426737418 7.216524969724537 -47.66713691473259 20.355191463136308 -28.768969942958233 -14.529015344342934 11.70336723944465 -79.42246799098301 -27.523156166773443 -9.05245541375609 7.400814831120846 -0.4894891222383381 0.098371879882732 -8.151083295744838 -0.008758464170953691 0.038211141072429254 44.57589617403713 0.014580601854190911 -0.013164631903052539 44.59060560444214 12.50419429046179 -0.03233716222358558 0.012536666142606479 -0.014136983429830961 0.03394727350155459 0.04257033267879464 0.011267815247169846 0.03700853282092146 0.017070842800603597 11.125917673260092 -0.007231130797358943 -0.020073934337195183 -0.019740375093738997 -0.0077253949136274645 0.0013112804027122988 0.02880785446646908 0.025472994801407356 0.04839466691544888 4.757877581671262 0.026224556069077275 0.01326019719629925 -0.042366716781859694 0.012513890153831756 0.008411454151371905 0.013645633401727237 -0.029378209021343155 0.015282664721070142 -5.593064930454142 -0.04198422762983687 -0.007851719675333452 -6.678034256880602 0.029749791730473218 -0.04206036427173057 -6.7458924078088645 0.04834522280154531 -0.046804650712662765 -0.006715699938936217 0.024811436575005313 0.009696618061635597 8.01673634497713 3.4522638556806657 -19.186117302179717 0.003864008551258018 10.435780728313999 0.026937899393157327 -5.595367943222078 -15.680017452057783 3.2224535364595934 0.00292619176217597 0.0007116623017671168 -0.044475078516859834 0.0052950637173142575 4.727652958588133 0.029076105503751566 12.470102908779156 -8.228905399230957 6.8520849005671245 -0.012316874803213926 46.37817925255051 -0.02316287450914847 -4.325215608379816 -14.751560361175379 -3.8558061709570013 0.03584687149280335 -0.029147750361256445 -0.043925988521046434 -0.004551611688556448 -10.794996013761718 0.008099231849426996 
0.030752646338836148 -0.0095991174249568 0.007333960902452791 -0.0006979683587486372 -0.011766676971139289 -0.0017034442731492004 -4.7571965956614175 9.087261964998287 -0.4062697619439028 -0.7845582410082838 2.922876342534062 0.43010867114349915 -1.0232924777284638 0.4389201042026304 -0.9832154383801954 -0.9648193665340069 0.17651036498889044 -1.020304437912154 -0.7422577552542647 5.91453668112151 0.9803361914755568 -0.4229401895280567 -2.1060457243553827 -2.2862879153311138 -0.5367844275785006 -16.51010801349251 -0.06868824295885348 3.906093596848506 -0.15568197590549657 -7.219619308503745 47.83174856792705 4.0832904676341295 28.881639722333816 -1.9552245574196523 16.82756367377996 66.67306685216144 30.89869058474125 -0.03280775144161218 -8.814058699719906 4.48730395096621 -0.13037067806148953 -1.6242752791991475 -0.014393466774367968 -0.024131698745970383 -56.23977618624251 0.013208776441463371 -0.03162168837285711 -56.19971859299292 -38.81199335852028 0.01826807231911112 -0.03707292228654039 0.020104917204246533 -0.020923747838305206 -0.027228618311657765 0.024533424754504752 -0.04273912050543293 0.038184203017791296 -36.64521199857692 0.015133545383672179 0.009812936602056429 0.0052650526871490765 0.0007058376366893349 0.012007626284131944 -0.034083611438573594 0.01947157850210692 0.0024245963932601495 -19.7519972340001 0.004891138868738042 0.04350798644800464 -0.01715983007503083 -0.03665323785519487 -0.012064082358601496 0.039040737351492924 -0.004345817168415046 -0.03269426599141793 24.064143559024235 -0.0073409684263419225 -0.02651899734390556 28.844320597131343 -0.03339844698342731 0.01595987826707121 28.836787780053463 -0.010643210026469837 -0.04795382873440879 -2.446615693829378 0.06952984185128683 7.216289700090668 -46.36548656564918 21.26244888222218 -29.482721239357605 -10.375391153005387 9.473725408864809 -78.8325428803208 -28.50119233731623 -9.722229589056212 7.988759484489302 -0.5001719874836081 0.08956243211161867 -8.16654914158018 -0.03898894527338305 0.01781752805205026 44.526148073085636 -0.036935361304928103 0.018503415626688977 44.53869569435478 12.499989510428652 -0.0018319075263675392 0.014642325475566357 -0.035178368628042384 -0.039949137220380244 0.04092760305523154 0.012457411183809419 0.02126234672439913 0.009638060594168487 11.114992487365159 -0.04297253560570948 -0.02500100157855681 -0.008735424335867053 -0.04916321377900344 0.047909374332414295 -0.042278534460437174 -0.006887823512072364 0.0469861656058593 4.819205040617241 0.021174825826598194 -0.022804029756812418 -0.03195648207793192 -0.049952955262212134 -0.021486267575303496 0.016725373846939708 0.0103287034332979 -0.03744182728289098 -5.551852349222843 0.0490508000921286 -0.023401889284557192 -6.748933023057119 0.03102017728002112 0.023490163821321748 -6.707126122382157 0.03640355807234618 -0.011683528808894355 0.014953983470548418 -0.0070485168672045784 0.020239870614313014 8.057360296425948 3.455213762756876 -19.227088914501106 0.016533046345585865 10.421885622106219 -0.021320084010994732 -5.650202425221674 -15.68073145616347 3.191197885358849 0.016790045286494575 0.012058707113329998 -0.006874964721643946 -0.025785738047842788 4.695879397283203 -0.04039538303409584 12.478993391434374 -8.228158583845445 6.9325843916802175 -0.02717003202712389 46.40419956935667 -0.028861741118975978 -4.320484442812889 -14.703647904707008 -3.8029009455228118 0.03435743400227209 -0.043828243088101106 -0.027380666975210296 0.031668984463624046 -10.755978213667216 -0.023728861122990226 
